<?xml version="1.0" standalone="no"?><!DOCTYPE svg PUBLIC "-//W3C//DTD SVG 1.1//EN" "http://www.w3.org/Graphics/SVG/1.1/DTD/svg11.dtd"><svg t="1676520228450" class="icon" viewBox="0 0 1024 1024" version="1.1" xmlns="http://www.w3.org/2000/svg" p-id="1050" xmlns:xlink="http://www.w3.org/1999/xlink" width="200" height="200"><path d="M504.888889 56.888889C289.863111 56.888889 113.265778 219.52 113.265778 389.390222l0.042666 6.912c1.137778 89.315556 24.618667 157.340444 70.869334 203.192889l1.237333 1.194667-0.768 0.568889C118.940444 650.780444 85.333333 703.943111 85.333333 760.760889c0 85.091556 82.204444 165.347556 155.975111 165.347555l7.224889-0.042666c34.133333-0.398222 74.24-3.640889 120.362667-9.699556l13.084444-1.792 2.602667 2.488889C420.394667 950.385778 465.408 967.111111 518.826667 967.111111l5.262222-0.056889c50.403556-1.066667 88.120889-17.649778 111.701333-49.877333l1.038222-1.479111 3.669334 0.853333c62.008889 14.321778 107.960889 17.493333 138.652444 9.045333C846.08 907.164444 924.444444 832.355556 924.444444 760.760889l-0.071111-4.053333c-1.607111-49.991111-33.137778-100.906667-93.411555-153.173334l-1.962667-1.678222 3.128889-2.986667c43.491556-42.808889 64.782222-112.924444 64.782222-209.493333C896.910222 213.518222 723.271111 56.888889 504.888889 56.888889z m0 28.444444c203.292444 0 363.576889 144.583111 363.576889 304.056889 0 100.195556-23.793778 166.812444-70.115556 201.031111l-14.805333 10.936889 14.307555 11.562667C863.800889 666.211556 896 715.690667 896 760.760889c0 56.604444-68.522667 122.026667-124.401778 137.415111-26.083556 7.196444-70.186667 3.740444-131.413333-10.908444l-16.725333-4.110223-5.361778 9.201778C600.149333 923.178667 567.751111 938.666667 518.855111 938.666667c-49.848889 0-90.083556-16.284444-121.6-49.009778l-5.048889-5.262222-7.210666 1.052444c-56.860444 8.149333-104.789333 12.231111-143.687112 12.231111-58.211556 0-127.530667-67.697778-127.530666-136.917333 0-50.275556 33.536-99.370667 102.428444-147.214222l15.544889-10.808889-14.705778-11.918222c-50.019556-40.576-75.335111-107.320889-75.335111-201.429334C141.710222 235.790222 305.066667 85.333333 504.888889 85.333333z" fill="#1296db" p-id="1051"></path><path d="M341.333333 369.777778m-99.555555 0a99.555556 99.555556 0 1 0 199.111111 0 99.555556 99.555556 0 1 0-199.111111 0Z" fill="#1296db" p-id="1052"></path><path d="M668.444444 369.777778m-99.555555 0a99.555556 99.555556 0 1 0 199.111111 0 99.555556 99.555556 0 1 0-199.111111 0Z" fill="#1296db" p-id="1053"></path><path d="M341.333333 270.222222a99.555556 99.555556 0 1 1 0 199.111111 99.555556 99.555556 0 0 1 0-199.111111z m0 28.444445a71.111111 71.111111 0 1 0 0 142.222222 71.111111 71.111111 0 0 0 0-142.222222zM668.444444 270.222222a99.555556 99.555556 0 1 1 0 199.111111 99.555556 99.555556 0 0 1 0-199.111111z m0 28.444445a71.111111 71.111111 0 1 0 0 142.222222 71.111111 71.111111 0 0 0 0-142.222222z" fill="#1296db" p-id="1054"></path></svg>