<?xml version="1.0" standalone="no"?><!DOCTYPE svg PUBLIC "-//W3C//DTD SVG 1.1//EN" "http://www.w3.org/Graphics/SVG/1.1/DTD/svg11.dtd"><svg t="1678675006034" class="icon" viewBox="0 0 1024 1024" version="1.1" xmlns="http://www.w3.org/2000/svg" p-id="1439" xmlns:xlink="http://www.w3.org/1999/xlink" width="16" height="16"><path d="M841.898667 512.085333l-18.346667-17.066666a20.48 20.48 0 0 0-29.866667 0l-4.266666 4.266666a180.053333 180.053333 0 0 1-253.44 0 247.04 247.04 0 0 0-349.866667 0l-8.96 8.96a20.48 20.48 0 0 0 0 29.866667l17.92 16.64a21.76 21.76 0 0 0 30.293333 0l8.96-8.96a179.2 179.2 0 0 1 253.44 0 246.613333 246.613333 0 0 0 174.933334 72.106667 246.186667 246.186667 0 0 0 174.933333-72.106667l4.266667-4.266667a21.76 21.76 0 0 0 0-29.44z" fill="#13227a" p-id="1440"></path></svg>